<svg class="preloader__img" height="200px" viewBox="0 0 100 100" preserveAspectRatio="xMidYMid" style="background: none;">
			<g transform="translate(50 50)"> <g transform="translate(-17 -17) scale(0.5)"> <g transform="rotate(301.9)">
			<animateTransform attributeName="transform" type="rotate" values="0;360" keyTimes="0;1" dur="1.5s" begin="0s" repeatCount="indefinite"/><path d="M37.43995192304605 -6.5 L48.43995192304605 -6.5 L48.43995192304605 6.5 L37.43995192304605 6.5 A38 38 0 0 1 31.070237969796747 21.87784981437163 L31.070237969796747 21.87784981437163 L38.84841256284877 29.65602440742365 L29.65602440742365 38.848412562848765 L21.87784981437163 31.070237969796743 A38 38 0 0 1 6.5 37.43995192304605 L6.5 37.43995192304605 L6.500000000000001 48.43995192304605 L-6.499999999999995 48.43995192304606 L-6.499999999999996 37.43995192304606 A38 38 0 0 1 -21.877849814371626 31.070237969796747 L-21.877849814371626 31.070237969796747 L-29.656024407423647 38.84841256284877 L-38.848412562848765 29.656024407423654 L-31.070237969796743 21.87784981437163 A38 38 0 0 1 -37.43995192304605 6.5000000000000036 L-37.43995192304605 6.5000000000000036 L-48.43995192304605 6.500000000000005 L-48.43995192304606 -6.499999999999992 L-37.43995192304606 -6.499999999999994 A38 38 0 0 1 -31.070237969796747 -21.877849814371626 L-31.070237969796747 -21.877849814371626 L-38.84841256284877 -29.656024407423647 L-29.656024407423658 -38.848412562848765 L-21.877849814371633 -31.070237969796743 A38 38 0 0 1 -6.500000000000005 -37.43995192304605 L-6.500000000000005 -37.43995192304605 L-6.500000000000007 -48.43995192304605 L6.49999999999999 -48.43995192304606 L6.499999999999992 -37.43995192304606 A38 38 0 0 1 21.877849814371622 -31.07023796979675 L21.877849814371622 -31.07023796979675 L29.656024407423644 -38.84841256284877 L38.848412562848765 -29.656024407423658 L31.07023796979674 -21.877849814371633 A38 38 0 0 1 37.43995192304605 -6.500000000000007 M0 -26A26 26 0 1 0 0 26 A26 26 0 1 0 0 -26" fill="#9c27b0"/></g></g> <g transform="translate(0 22) scale(0.4)"> <g transform="rotate(35.6002)">
			<animateTransform attributeName="transform" type="rotate" values="360;0" keyTimes="0;1" dur="1.5s" begin="-0.09375s" repeatCount="indefinite"/><path d="M37.43995192304605 -6.5 L48.43995192304605 -6.5 L48.43995192304605 6.5 L37.43995192304605 6.5 A38 38 0 0 1 31.070237969796747 21.87784981437163 L31.070237969796747 21.87784981437163 L38.84841256284877 29.65602440742365 L29.65602440742365 38.848412562848765 L21.87784981437163 31.070237969796743 A38 38 0 0 1 6.5 37.43995192304605 L6.5 37.43995192304605 L6.500000000000001 48.43995192304605 L-6.499999999999995 48.43995192304606 L-6.499999999999996 37.43995192304606 A38 38 0 0 1 -21.877849814371626 31.070237969796747 L-21.877849814371626 31.070237969796747 L-29.656024407423647 38.84841256284877 L-38.848412562848765 29.656024407423654 L-31.070237969796743 21.87784981437163 A38 38 0 0 1 -37.43995192304605 6.5000000000000036 L-37.43995192304605 6.5000000000000036 L-48.43995192304605 6.500000000000005 L-48.43995192304606 -6.499999999999992 L-37.43995192304606 -6.499999999999994 A38 38 0 0 1 -31.070237969796747 -21.877849814371626 L-31.070237969796747 -21.877849814371626 L-38.84841256284877 -29.656024407423647 L-29.656024407423658 -38.848412562848765 L-21.877849814371633 -31.070237969796743 A38 38 0 0 1 -6.500000000000005 -37.43995192304605 L-6.500000000000005 -37.43995192304605 L-6.500000000000007 -48.43995192304605 L6.49999999999999 -48.43995192304606 L6.499999999999992 -37.43995192304606 A38 38 0 0 1 21.877849814371622 -31.07023796979675 L21.877849814371622 -31.07023796979675 L29.656024407423644 -38.84841256284877 L38.848412562848765 -29.656024407423658 L31.07023796979674 -21.877849814371633 A38 38 0 0 1 37.43995192304605 -6.500000000000007 M0 -26A26 26 0 1 0 0 26 A26 26 0 1 0 0 -26" fill="#212121"/></g></g> <g transform="translate(28 4) scale(0.3)"> <g transform="rotate(324.4)">
			<animateTransform attributeName="transform" type="rotate" values="0;360" keyTimes="0;1" dur="1.5s" begin="-0.09375s" repeatCount="indefinite"/><path d="M37.43995192304605 -6.5 L48.43995192304605 -6.5 L48.43995192304605 6.5 L37.43995192304605 6.5 A38 38 0 0 1 31.070237969796747 21.87784981437163 L31.070237969796747 21.87784981437163 L38.84841256284877 29.65602440742365 L29.65602440742365 38.848412562848765 L21.87784981437163 31.070237969796743 A38 38 0 0 1 6.5 37.43995192304605 L6.5 37.43995192304605 L6.500000000000001 48.43995192304605 L-6.499999999999995 48.43995192304606 L-6.499999999999996 37.43995192304606 A38 38 0 0 1 -21.877849814371626 31.070237969796747 L-21.877849814371626 31.070237969796747 L-29.656024407423647 38.84841256284877 L-38.848412562848765 29.656024407423654 L-31.070237969796743 21.87784981437163 A38 38 0 0 1 -37.43995192304605 6.5000000000000036 L-37.43995192304605 6.5000000000000036 L-48.43995192304605 6.500000000000005 L-48.43995192304606 -6.499999999999992 L-37.43995192304606 -6.499999999999994 A38 38 0 0 1 -31.070237969796747 -21.877849814371626 L-31.070237969796747 -21.877849814371626 L-38.84841256284877 -29.656024407423647 L-29.656024407423658 -38.848412562848765 L-21.877849814371633 -31.070237969796743 A38 38 0 0 1 -6.500000000000005 -37.43995192304605 L-6.500000000000005 -37.43995192304605 L-6.500000000000007 -48.43995192304605 L6.49999999999999 -48.43995192304606 L6.499999999999992 -37.43995192304606 A38 38 0 0 1 21.877849814371622 -31.07023796979675 L21.877849814371622 -31.07023796979675 L29.656024407423644 -38.84841256284877 L38.848412562848765 -29.656024407423658 L31.07023796979674 -21.877849814371633 A38 38 0 0 1 37.43995192304605 -6.500000000000007 M0 -26A26 26 0 1 0 0 26 A26 26 0 1 0 0 -26" fill="#6a1b9a"/></g></g></g>
		</svg>